<mxfile host="app.diagrams.net" agent="Mozilla/5.0 (Windows NT 10.0; Win64; x64) AppleWebKit/537.36 (KHTML, like Gecko) Chrome/127.0.0.0 Safari/537.36" version="24.7.7">
  <diagram id="Ht1M8jgEwFfnCIfOTk4-" name="Page-1">
    <mxGraphModel dx="1120" dy="468" grid="1" gridSize="10" guides="1" tooltips="1" connect="1" arrows="1" fold="1" page="1" pageScale="1" pageWidth="1169" pageHeight="827" math="0" shadow="0">
      <root>
        <mxCell id="0" />
        <mxCell id="1" parent="0" />
        <mxCell id="UEzPUAAOIrF-is8g5C7q-205" value="AWS Cloud" style="points=[[0,0],[0.25,0],[0.5,0],[0.75,0],[1,0],[1,0.25],[1,0.5],[1,0.75],[1,1],[0.75,1],[0.5,1],[0.25,1],[0,1],[0,0.75],[0,0.5],[0,0.25]];outlineConnect=0;gradientColor=none;html=1;whiteSpace=wrap;fontSize=12;fontStyle=0;shape=mxgraph.aws4.group;grIcon=mxgraph.aws4.group_aws_cloud_alt;strokeColor=#232F3E;fillColor=none;verticalAlign=top;align=left;spacingLeft=30;fontColor=#232F3E;dashed=0;labelBackgroundColor=#ffffff;container=1;pointerEvents=0;collapsible=0;recursiveResize=0;" parent="1" vertex="1">
          <mxGeometry x="240" y="180" width="640" height="400" as="geometry" />
        </mxCell>
        <mxCell id="XgcGxkV8Ss9xe9FQzqDt-1" value="&lt;b&gt;&lt;font style=&quot;font-size: 18px;&quot;&gt;Cloud Shell&lt;/font&gt;&lt;/b&gt;" style="image;aspect=fixed;html=1;points=[];align=center;fontSize=12;image=img/lib/azure2/other/Azure_Cloud_Shell.svg;" vertex="1" parent="UEzPUAAOIrF-is8g5C7q-205">
          <mxGeometry x="40" y="176.4" width="68" height="47.199999999999996" as="geometry" />
        </mxCell>
        <mxCell id="XgcGxkV8Ss9xe9FQzqDt-6" value="&lt;font style=&quot;font-size: 14px;&quot;&gt;Validar recursos&amp;nbsp;&lt;/font&gt;&lt;font style=&quot;background-color: initial; font-size: 14px;&quot;&gt;e&amp;nbsp;&lt;/font&gt;&lt;div&gt;&lt;span style=&quot;background-color: initial; font-size: medium;&quot;&gt;criar role para ec2&lt;/span&gt;&lt;/div&gt;" style="text;html=1;align=center;verticalAlign=middle;resizable=0;points=[];autosize=1;strokeColor=none;fillColor=none;" vertex="1" parent="UEzPUAAOIrF-is8g5C7q-205">
          <mxGeometry x="-1" y="250" width="150" height="50" as="geometry" />
        </mxCell>
        <mxCell id="XgcGxkV8Ss9xe9FQzqDt-2" value="&lt;b&gt;VPC CUSTOMIZADA&lt;/b&gt;" style="sketch=0;outlineConnect=0;gradientColor=none;html=1;whiteSpace=wrap;fontSize=12;fontStyle=0;shape=mxgraph.aws4.group;grIcon=mxgraph.aws4.group_vpc;strokeColor=#879196;fillColor=none;verticalAlign=top;align=left;spacingLeft=30;fontColor=#879196;dashed=0;" vertex="1" parent="1">
          <mxGeometry x="390" y="200" width="470" height="360" as="geometry" />
        </mxCell>
        <mxCell id="XgcGxkV8Ss9xe9FQzqDt-3" value="Security group - Porta 3001 liberada" style="fillColor=none;strokeColor=#DD3522;verticalAlign=top;fontStyle=0;fontColor=#DD3522;whiteSpace=wrap;html=1;align=left;" vertex="1" parent="1">
          <mxGeometry x="450" y="240" width="390" height="300" as="geometry" />
        </mxCell>
        <mxCell id="XgcGxkV8Ss9xe9FQzqDt-4" value="EC2 instance" style="points=[[0,0],[0.25,0],[0.5,0],[0.75,0],[1,0],[1,0.25],[1,0.5],[1,0.75],[1,1],[0.75,1],[0.5,1],[0.25,1],[0,1],[0,0.75],[0,0.5],[0,0.25]];outlineConnect=0;gradientColor=none;html=1;whiteSpace=wrap;fontSize=12;fontStyle=0;container=1;pointerEvents=0;collapsible=0;recursiveResize=0;shape=mxgraph.aws4.group;grIcon=mxgraph.aws4.group_ec2_instance_contents;strokeColor=#D86613;fillColor=none;verticalAlign=top;align=left;spacingLeft=30;fontColor=#D86613;dashed=0;" vertex="1" parent="1">
          <mxGeometry x="520" y="280" width="310" height="240" as="geometry" />
        </mxCell>
        <mxCell id="XgcGxkV8Ss9xe9FQzqDt-9" value="Container" style="swimlane;" vertex="1" parent="XgcGxkV8Ss9xe9FQzqDt-4">
          <mxGeometry x="160" y="10" width="120" height="100" as="geometry" />
        </mxCell>
        <mxCell id="XgcGxkV8Ss9xe9FQzqDt-15" value="API + Front" style="outlineConnect=0;dashed=0;verticalLabelPosition=bottom;verticalAlign=top;align=center;html=1;shape=mxgraph.aws3.android;fillColor=#8CC64F;gradientColor=none;" vertex="1" parent="XgcGxkV8Ss9xe9FQzqDt-9">
          <mxGeometry x="40" y="30" width="40" height="50" as="geometry" />
        </mxCell>
        <mxCell id="XgcGxkV8Ss9xe9FQzqDt-18" style="edgeStyle=orthogonalEdgeStyle;rounded=0;orthogonalLoop=1;jettySize=auto;html=1;entryX=0;entryY=0.5;entryDx=0;entryDy=0;" edge="1" parent="XgcGxkV8Ss9xe9FQzqDt-4" source="XgcGxkV8Ss9xe9FQzqDt-13" target="XgcGxkV8Ss9xe9FQzqDt-9">
          <mxGeometry relative="1" as="geometry" />
        </mxCell>
        <mxCell id="XgcGxkV8Ss9xe9FQzqDt-13" value="" style="image;sketch=0;aspect=fixed;html=1;points=[];align=center;fontSize=12;image=img/lib/mscae/Docker.svg;" vertex="1" parent="XgcGxkV8Ss9xe9FQzqDt-4">
          <mxGeometry x="40" y="80" width="85.36" height="70" as="geometry" />
        </mxCell>
        <mxCell id="XgcGxkV8Ss9xe9FQzqDt-8" value="" style="sketch=0;outlineConnect=0;fontColor=#232F3E;gradientColor=none;fillColor=#232F3D;strokeColor=none;dashed=0;verticalLabelPosition=bottom;verticalAlign=top;align=center;html=1;fontSize=12;fontStyle=0;aspect=fixed;pointerEvents=1;shape=mxgraph.aws4.authenticated_user;" vertex="1" parent="1">
          <mxGeometry x="70" y="410" width="78" height="78" as="geometry" />
        </mxCell>
        <mxCell id="XgcGxkV8Ss9xe9FQzqDt-12" value="Container" style="swimlane;" vertex="1" parent="1">
          <mxGeometry x="680" y="400" width="120" height="100" as="geometry">
            <mxRectangle x="970" y="300" width="90" height="30" as="alternateBounds" />
          </mxGeometry>
        </mxCell>
        <mxCell id="XgcGxkV8Ss9xe9FQzqDt-14" value="Database" style="image;aspect=fixed;html=1;points=[];align=center;fontSize=12;image=img/lib/azure2/databases/Azure_Database_PostgreSQL_Server.svg;" vertex="1" parent="XgcGxkV8Ss9xe9FQzqDt-12">
          <mxGeometry x="45" y="30" width="30" height="40" as="geometry" />
        </mxCell>
        <mxCell id="XgcGxkV8Ss9xe9FQzqDt-19" style="edgeStyle=orthogonalEdgeStyle;rounded=0;orthogonalLoop=1;jettySize=auto;html=1;entryX=0;entryY=0.5;entryDx=0;entryDy=0;" edge="1" parent="1" source="XgcGxkV8Ss9xe9FQzqDt-13" target="XgcGxkV8Ss9xe9FQzqDt-12">
          <mxGeometry relative="1" as="geometry" />
        </mxCell>
        <mxCell id="XgcGxkV8Ss9xe9FQzqDt-20" style="edgeStyle=orthogonalEdgeStyle;rounded=0;orthogonalLoop=1;jettySize=auto;html=1;entryX=-0.015;entryY=0.53;entryDx=0;entryDy=0;entryPerimeter=0;" edge="1" parent="1" source="XgcGxkV8Ss9xe9FQzqDt-8" target="XgcGxkV8Ss9xe9FQzqDt-1">
          <mxGeometry relative="1" as="geometry" />
        </mxCell>
        <mxCell id="XgcGxkV8Ss9xe9FQzqDt-21" style="edgeStyle=orthogonalEdgeStyle;rounded=0;orthogonalLoop=1;jettySize=auto;html=1;entryX=0;entryY=0.5;entryDx=0;entryDy=0;" edge="1" parent="1" source="XgcGxkV8Ss9xe9FQzqDt-1" target="XgcGxkV8Ss9xe9FQzqDt-4">
          <mxGeometry relative="1" as="geometry" />
        </mxCell>
      </root>
    </mxGraphModel>
  </diagram>
</mxfile>
